<?xml version="1.0" encoding="UTF-8"?>
<svg id="Layer_2" data-name="Layer 2" xmlns="http://www.w3.org/2000/svg" viewBox="0 0 411.71 208.32">
  <defs>
    <style>
      .cls-1 {
        stroke-width: 5px;
      }

      .cls-1, .cls-2 {
        fill: none;
        stroke: #ffd14f;
        stroke-miterlimit: 10;
      }

      .cls-2 {
        stroke-width: 2px;
      }

      .cls-3, .cls-4 {
        stroke-width: 0px;
      }

      .cls-4 {
        fill: #59585a;
      }
    </style>
  </defs>
  <g id="Final_Logo_outlines_" data-name="Final Logo (outlines)">
    <g>
      <path class="cls-1" d="M83.21,163.54c.74-.38-.67-.38-5.09,7.6-.51.92-1.48,1.5-2.36,2.13-.52.37-1.42.9-2,1.17-2.44,1.14-5.15,1.9-7.26,3.47-3.19,2.36-6.76,4.38-8.88,8.02-.87,1.5-2.29,2.67-3.28,4.11-.5.73-.55,1.75-.88,2.61-.18.46-.49.87-.8,1.26-1.75,2.25-3.43,4.57-5.31,6.71-.87.99-2.12,1.64-3.15,2.5-2.01,1.68-4.52,2.7-7.14,2.69s-3.42-.7-2.68-2.61c1.19-3.1,2.23-6.22,4.42-8.9,1.32-1.62,2.05-3.8,2.73-5.84.51-1.52,0-2.87-1.84-3.39-1.9-.53-3.76-1.17-5.63-1.8-.36-.12-.95-.41-.95-.63.01-1.86-1.38-1.23-2.34-1.43-1.11-.23-2.05-.09-2.83.39-1.7,1.05-3.98-.12-3.68-2.09,0-.02,0-.04,0-.05.32-1.98-1.15-2.95-2.59-3.78-1-.58-1.86-1.02-1.81-2.48.05-1.22-.86-1.34-2.57-.37-1.4-.86-1.94-2.24-2.21-3.78-.16-.93-.21-1.59-1.64-1.32-.64.12-1.62-1.23-2.36-1.99-.51-.53-.88-1.2-1.33-1.79-.39-.51-1-.94-1.17-1.51-.67-2.15-2.02-3.71-3.8-4.99-.28-.2-.52-.48-.82-.63-1.58-.75-1.82-2.04-.92-3.65.5-.9.58-2.03.93-3.03.18-.5.49-.97.82-1.4.68-.88,1.09-1.7-.05-2.54-.33-.24-.6-.56-.88-.86-1.37-1.46-1.25-3.18.36-4.34,1.31-.95,2.54-1.91,2.73-3.69.03-.24.3-.46.47-.67.82-1.04,1.89-1.96,2.41-3.13.79-1.78,2.01-2.89,3.66-3.84,1.84-1.06,3.4-2.58,5.25-3.61.98-.54,2.34-.72,3.48-.59,2.64.29,5.12.34,7.33-1.47.41-.34,1.2-.33,1.81-.3,1.72.08,2.55-.54,2.33-2.2-.41-2.97-.39-3.81,3.85-5.02.23-.06.56-.06.66-.21,1.5-2.26,4.29-2.58,6.25-4.19,1.56-1.29,3.34-2.25,5.56-2.19,2.2.05,4.02-.86,5.2-2.85.54-.91,1.21-1.57,2.38-.71.57.42,4.5-.44,4.63-1.05.17-.76.02-1.67-.25-2.42-.32-.89-.83-1.73-1.41-2.49-.8-1.06-1.6-2.18-2.63-2.97-1.37-1.05-2.36-2.13-2.62-3.95-.15-1.02-.71-2.36-1.51-2.85-2.6-1.59-3.65-3.8-3.96-6.73-.22-2.11-1.02-2.52-3.06-2.45-1.73.06-3.3-1.38-3.2-3.08.17-2.6.43-5.2.67-7.8.27-2.87-1.85-4.87-4.64-4.11-2.05.56-3.04-.38-2.84-2.4.17-1.64-.13-3.32.1-4.94.1-.74.97-1.37,1.66-2.27.32-.8-1.36-1.91-.71-3.23.37-.75.53-1.7.48-2.55-.07-1.2,1.94-3.42,2.98-2.94,1.82.84,2.73-.66,3.58-1.51.75-.75-.37-3.25.07-3.53,1.01-.25,1.52-.45,2.04-.5,1.76-.18,2.04-.68,1.34-2.23-1.26-2.77-2.54-5.54-3.62-8.38-.21-.54.31-1.57.79-2.1.47-.53,1.29-.94,2-1.04,3.4-.48,5.25-3.21,7.66-5.14.09-.07.04-.32.06-.48.14-1.22.64-1.95,1.91-2.55,1.68-.79,3.15-2.08,4.6-3.29.73-.6,1.3-1.45,1.82-2.25.71-1.09.98-2.38,1.41-3.55.71-1.92,2.31-3.57,3.76-5.12,1.15-1.22,2.67-2.09,3.99-3.17,1.18-.97,4.98-1.09,6.15-.14,8.74,7.03,17.42,14.13,26.25,21.04,6.47,5.07,13.14,9.87,19.67,14.86.51.39.78,1.21.6,1.83-2,6.51-5.32,12.35-9.33,17.81-.24.33-.57.63-.69,1-.55,1.72-.86,3.39-2.79,4.45-1.26.69-3.02,1.52-3.04,3.55,0,.12-1.18.5-.91.34"/>
      <g>
        <path class="cls-3" d="M149.64,101.63h15.74l-21.54,63.42h-11.23l-8.47-32.22-8.19,32.22h-11.32l-21.36-63.42h15.56l11.69,37.93,7.83-28.9h11.87l7.73,29.09,11.69-38.11Z"/>
        <path class="cls-3" d="M221.26,146.83c0,8.65-5.62,18.23-20.53,18.23h-27.52v-63.42h25.68c11.6,0,19.05,7,19.05,16.39,0,4.42-1.66,11.05-8.93,13.16,8.38,1.2,12.24,8.38,12.24,15.65ZM197.88,114.24h-10.22v12.15h10.13c3.41,0,5.71-2.21,5.71-6.07,0-3.22-1.66-6.08-5.61-6.08ZM198.99,152.44c5.15,0,7.73-3.5,7.73-7.09,0-3.31-2.3-7.09-7.73-7.09h-11.32v14.18h11.32Z"/>
        <path class="cls-3" d="M246.32,152.44h27.06v12.61h-41.52v-63.42h41.57v12.61h-27.12v13.07h23.01v12.98h-23.01v12.15Z"/>
      </g>
      <g>
        <path class="cls-4" d="M314.54,101.62h2.26l-4.8,14.11h-1.79l-2.43-8.56-2.39,8.56h-1.79l-4.8-14.11h2.26l3.42,10.67,2.49-8.74h1.63l2.49,8.74,3.44-10.67Z"/>
        <path class="cls-4" d="M317.82,108.7c0-4.01,3.13-7.33,7.16-7.33s7.21,3.32,7.21,7.33-3.15,7.27-7.21,7.27-7.16-3.28-7.16-7.27ZM330.07,108.7c0-2.91-2.18-5.37-5.09-5.37s-5.04,2.46-5.04,5.37,2.16,5.3,5.04,5.3,5.09-2.42,5.09-5.3Z"/>
        <path class="cls-4" d="M351.26,115.73h-2.1l-1.26-10.24-4.22,8.68h-1.81l-4.26-8.68-1.26,10.24h-2.1l1.73-14.11h1.89l4.88,10.16,4.88-10.16h1.89l1.73,14.11Z"/>
        <path class="cls-4" d="M356.4,113.8h6.59v1.93h-8.69v-14.11h8.5v1.93h-6.4v4.28h5.58v1.95h-5.58v4.03Z"/>
        <path class="cls-4" d="M374.15,101.62h2.12v14.11h-2l-6.2-10.28v10.28h-2.12v-14.11h2.06l6.13,10.2v-10.2Z"/>
        <path class="cls-4" d="M308.84,136.23c0,2.03-1.5,3.99-4.2,3.99h-5.82v-14.11h5.37c2.4,0,3.89,1.43,3.89,3.62,0,1.17-.43,2.44-1.8,2.97,1.68.35,2.56,1.99,2.56,3.52ZM304.15,128.04h-3.22v3.89h3.26c1.17,0,1.78-.82,1.78-1.97s-.61-1.92-1.82-1.92ZM304.23,138.3c1.64,0,2.5-1.04,2.5-2.27,0-1.15-.76-2.29-2.4-2.29h-3.4v4.57h3.3Z"/>
        <path class="cls-4" d="M311.59,135.37v-9.26h2.11v9.24c0,2.15,1.43,3.11,3.09,3.11s3.11-.96,3.11-3.11v-9.24h2.11v9.26c0,3.24-2.42,5.1-5.22,5.1s-5.2-1.86-5.2-5.1Z"/>
        <path class="cls-4" d="M324.77,136.17h2.09c.04,1.21,1.17,2.38,2.93,2.38s2.66-1.06,2.66-2.23c0-1.25-1.13-1.84-2.27-2.15l-1.8-.45c-3.01-.76-3.5-2.54-3.5-3.71,0-2.48,2.19-4.14,4.69-4.14s4.53,1.6,4.53,4.18h-2.09c0-1.33-1.04-2.25-2.5-2.25-1.33,0-2.52.88-2.52,2.17,0,.45.14,1.37,1.92,1.84l1.78.49c2.38.63,3.87,1.84,3.87,3.91,0,2.36-1.92,4.26-4.77,4.26-3.01,0-5.02-2.03-5.02-4.3Z"/>
        <path class="cls-4" d="M337.36,140.23v-14.11h2.11v14.11h-2.11Z"/>
        <path class="cls-4" d="M351.44,126.11h2.11v14.11h-1.99l-6.16-10.28v10.28h-2.11v-14.11h2.05l6.1,10.2v-10.2Z"/>
        <path class="cls-4" d="M359.45,138.3h6.55v1.93h-8.64v-14.11h8.46v1.93h-6.37v4.28h5.55v1.95h-5.55v4.03Z"/>
        <path class="cls-4" d="M368.08,136.17h2.09c.04,1.21,1.17,2.38,2.93,2.38s2.66-1.06,2.66-2.23c0-1.25-1.13-1.84-2.27-2.15l-1.8-.45c-3.01-.76-3.5-2.54-3.5-3.71,0-2.48,2.19-4.14,4.69-4.14s4.53,1.6,4.53,4.18h-2.09c0-1.33-1.04-2.25-2.5-2.25-1.33,0-2.52.88-2.52,2.17,0,.45.14,1.37,1.92,1.84l1.78.49c2.38.63,3.87,1.84,3.87,3.91,0,2.36-1.92,4.26-4.77,4.26-3.01,0-5.02-2.03-5.02-4.3Z"/>
        <path class="cls-4" d="M379.79,136.17h2.09c.04,1.21,1.17,2.38,2.93,2.38s2.66-1.06,2.66-2.23c0-1.25-1.13-1.84-2.27-2.15l-1.8-.45c-3.01-.76-3.5-2.54-3.5-3.71,0-2.48,2.19-4.14,4.69-4.14s4.53,1.6,4.53,4.18h-2.09c0-1.33-1.04-2.25-2.5-2.25-1.33,0-2.52.88-2.52,2.17,0,.45.14,1.37,1.92,1.84l1.78.49c2.38.63,3.87,1.84,3.87,3.91,0,2.36-1.93,4.26-4.77,4.26-3.01,0-5.02-2.03-5.02-4.3Z"/>
        <path class="cls-4" d="M300.96,163.12h6.55v1.93h-8.64v-14.11h8.46v1.93h-6.37v4.28h5.55v1.95h-5.55v4.03Z"/>
        <path class="cls-4" d="M318.61,150.93h2.11v14.11h-1.99l-6.16-10.28v10.28h-2.11v-14.11h2.05l6.1,10.2v-10.2Z"/>
        <path class="cls-4" d="M333.55,150.93v1.93h-4.2v12.18h-2.11v-12.18h-4.2v-1.93h10.51Z"/>
        <path class="cls-4" d="M337.96,163.12h6.55v1.93h-8.64v-14.11h8.46v1.93h-6.37v4.28h5.55v1.95h-5.55v4.03Z"/>
        <path class="cls-4" d="M354.79,165.04l-3.62-5.26h-1.6v5.26h-2.11v-14.11h5.39c3.09,0,4.34,2.23,4.34,4.46,0,2.03-1.23,4.16-3.58,4.38l3.71,5.26h-2.52ZM349.57,152.86v5.08h2.76c1.95,0,2.74-1.04,2.74-2.54s-.88-2.54-2.25-2.54h-3.26Z"/>
        <path class="cls-4" d="M365.84,150.93c3.03,0,4.3,2.23,4.3,4.46s-1.27,4.42-4.3,4.42h-3.54v5.22h-2.11v-14.11h5.65ZM365.71,157.89c1.64,0,2.31-1.25,2.31-2.5s-.66-2.54-2.23-2.54h-3.5v5.04h3.42Z"/>
        <path class="cls-4" d="M380.03,165.04l-3.62-5.26h-1.6v5.26h-2.11v-14.11h5.39c3.09,0,4.34,2.23,4.34,4.46,0,2.03-1.23,4.16-3.58,4.38l3.71,5.26h-2.52ZM374.81,152.86v5.08h2.76c1.95,0,2.74-1.04,2.74-2.54s-.88-2.54-2.25-2.54h-3.26Z"/>
        <path class="cls-4" d="M385.42,165.04v-14.11h2.11v14.11h-2.11Z"/>
        <path class="cls-4" d="M390.46,160.99h2.09c.04,1.21,1.17,2.38,2.93,2.38s2.66-1.06,2.66-2.23c0-1.25-1.13-1.84-2.27-2.15l-1.8-.45c-3.01-.76-3.5-2.54-3.5-3.71,0-2.48,2.19-4.14,4.69-4.14s4.53,1.6,4.53,4.18h-2.09c0-1.33-1.04-2.25-2.5-2.25-1.33,0-2.52.88-2.52,2.17,0,.45.14,1.37,1.92,1.84l1.78.49c2.38.63,3.87,1.84,3.87,3.91,0,2.36-1.92,4.26-4.77,4.26-3.01,0-5.02-2.03-5.02-4.3Z"/>
        <path class="cls-4" d="M405.15,163.12h6.55v1.93h-8.64v-14.11h8.46v1.93h-6.37v4.28h5.55v1.95h-5.55v4.03Z"/>
      </g>
      <line class="cls-2" x1="286.13" y1="101.63" x2="286.13" y2="165.06"/>
      <g>
        <path class="cls-4" d="M90.19,81.14h1.56v11.78h-1.5l-5.43-8.97v8.97h-1.56v-11.78h1.54l5.4,8.94v-8.94Z"/>
        <path class="cls-4" d="M95.82,92.93l.15-1.45c.26.09.96.14,1.11.14,1.5,0,2.07-1.06,2.07-2.31v-8.17h1.56v8.17c0,2.05-.99,3.81-3.62,3.81-.32,0-.85-.1-1.26-.19Z"/>
        <path class="cls-4" d="M111.79,89.59h1.54c.05,1.04,1.04,2.1,2.61,2.1s2.38-.99,2.38-2.03c0-1.14-1.04-1.66-2.03-1.91l-1.52-.38c-2.5-.6-2.89-2.07-2.89-3.02,0-2.03,1.83-3.4,3.88-3.4s3.73,1.32,3.73,3.42h-1.54c0-1.18-.97-1.98-2.24-1.98-1.18,0-2.27.79-2.27,1.95,0,.41.14,1.23,1.71,1.64l1.54.41c2,.53,3.2,1.56,3.2,3.23,0,1.83-1.49,3.52-3.93,3.52s-4.14-1.71-4.15-3.54Z"/>
        <path class="cls-4" d="M131.66,81.14v1.44h-3.59v10.34h-1.55v-10.34h-3.59v-1.44h8.73Z"/>
        <path class="cls-4" d="M142.2,92.92l-1.14-3.03h-5.06l-1.14,3.03h-1.62l4.48-11.78h1.64l4.48,11.78h-1.62ZM136.51,88.53h4.03l-2.02-5.35-2.02,5.35Z"/>
        <path class="cls-4" d="M154.1,81.14v1.44h-3.59v10.34h-1.55v-10.34h-3.59v-1.44h8.73Z"/>
        <path class="cls-4" d="M159.8,91.48h5.57v1.44h-7.11v-11.78h6.94v1.44h-5.4v3.83h4.72v1.45h-4.72v3.62Z"/>
        <path class="cls-4" d="M175.76,87.06c0-3.33,2.65-6.12,5.98-6.12,1.81,0,3.38.77,4.43,2l-1.13.96c-.79-.92-1.98-1.52-3.3-1.52-2.48,0-4.43,2.15-4.43,4.68s1.95,4.63,4.43,4.63c1.32,0,2.51-.6,3.3-1.52l1.13.96c-1.04,1.23-2.61,2-4.43,2-3.33,0-5.98-2.73-5.98-6.07Z"/>
        <path class="cls-4" d="M192.07,91.48h5.57v1.44h-7.11v-11.78h6.94v1.44h-5.4v3.83h4.72v1.45h-4.72v3.62Z"/>
        <path class="cls-4" d="M208.5,92.92l-3.09-4.44h-1.52v4.44h-1.56v-11.78h4.43c2.56,0,3.55,1.85,3.55,3.68,0,1.71-.97,3.52-3.08,3.67l3.13,4.43h-1.86ZM203.89,82.58v4.48h2.46c1.73,0,2.41-.91,2.41-2.24s-.77-2.24-1.97-2.24h-2.91Z"/>
        <path class="cls-4" d="M222.32,81.14v1.44h-3.59v10.34h-1.55v-10.34h-3.59v-1.44h8.73Z"/>
        <path class="cls-4" d="M226.48,92.92v-11.78h1.56v11.78h-1.56Z"/>
        <path class="cls-4" d="M240.34,82.58h-5.3v3.83h4.2v1.45h-4.2v5.06h-1.56v-11.78h6.85v1.44Z"/>
        <path class="cls-4" d="M244.76,92.92v-11.78h1.55v11.78h-1.55Z"/>
        <path class="cls-4" d="M253.3,91.48h5.57v1.44h-7.11v-11.78h6.94v1.44h-5.4v3.83h4.72v1.45h-4.72v3.62Z"/>
        <path class="cls-4" d="M268.13,81.14c3.35,0,5.32,2.56,5.32,5.91s-1.96,5.86-5.32,5.86h-4.56v-11.78h4.56ZM268.13,91.48c2.48,0,3.76-1.91,3.76-4.43s-1.28-4.48-3.76-4.48h-3.01v8.9h3.01Z"/>
      </g>
    </g>
  </g>
</svg>