<svg id="Layer_1" data-name="Layer 1" xmlns="http://www.w3.org/2000/svg" viewBox="0 0 11.14 9.43"><defs><style>.cls-1{fill:#fdfefe;}</style></defs><path class="cls-1" d="M71.88,86.36v3.43a.38.38,0,0,1-.12.28.41.41,0,0,1-.27.15l-7,.81a4.2,4.2,0,0,1,.09.47,1.14,1.14,0,0,1-.16.43h6.16a.43.43,0,0,1,0,.86H63.73a.41.41,0,0,1-.3-.13.42.42,0,0,1-.13-.3.57.57,0,0,1,.06-.21c0-.09.07-.17.1-.24l.15-.27a1.68,1.68,0,0,0,.1-.2l-1.18-5.51H61.16a.41.41,0,0,1-.3-.12.42.42,0,0,1-.13-.31.43.43,0,0,1,.43-.42h1.72a.41.41,0,0,1,.19,0,.45.45,0,0,1,.13.1.54.54,0,0,1,.08.17.88.88,0,0,1,.06.17s0,.11,0,.2a.86.86,0,0,1,0,.17h8.05a.41.41,0,0,1,.3.13A.42.42,0,0,1,71.88,86.36ZM64.76,93a.83.83,0,0,1,0,1.21.85.85,0,0,1-1.2,0,.83.83,0,0,1,0-1.21.85.85,0,0,1,1.2,0Zm6,0a.83.83,0,0,1,0,1.21.85.85,0,0,1-1.2,0,.83.83,0,0,1,0-1.21.85.85,0,0,1,1.2,0Z" transform="translate(-60.73 -85.08)"/></svg>