<?xml version="1.0" encoding="UTF-8"?> <svg xmlns="http://www.w3.org/2000/svg" id="Ebene_1" viewBox="0 0 203.7 90" width="204" height="90"><path d="m141.37,45h-1.06c0-16.43,5.27-31.99,15.25-45l.84.65c-9.83,12.83-15.03,28.16-15.03,44.36Z" style="fill:#fff; stroke-width:0px;"></path><path d="m155.55,90c-9.98-13.01-15.25-28.57-15.25-45h1.06c0,16.19,5.2,31.53,15.03,44.35l-.84.65Z" style="fill:#fff; stroke-width:0px;"></path><polygon points="178.18 39.82 167.37 29.73 160.73 29.73 176.73 44.99 160.73 60.27 167.7 60.27 178.18 50.24 178.18 39.82" style="fill:#ffcd00; stroke-width:0px;"></polygon><polygon points="203.7 29.73 197.06 29.73 185.45 40.6 185.45 49.4 197.06 60.27 203.7 60.27 187.89 44.99 203.7 29.73" style="fill:#ffcd00; stroke-width:0px;"></polygon><path d="m7.81,30.85h20.89c4.18,0,7.33,2.16,9.43,6.48.45,1,.68,2.3.68,3.89h-3.92c-.02-.61-.24-1.41-.65-2.42-.98-2.52-3.37-3.78-7.16-3.78H8.89c-2.2,0-3.67,1.13-4.43,3.38l-.14,1.05c0,2.42,1.35,3.91,4.04,4.46h21.57c4.09,0,6.97,2.11,8.64,6.33.25.91.38,1.72.4,2.44,0,3.54-1.88,6.28-5.65,8.21-.99.36-1.84.54-2.56.54H10.11c-4.3,0-7.49-2.29-9.57-6.87-.36-.93-.54-2.03-.54-3.3v-.2h4.03c.04.7.22,1.46.54,2.27,1.1,2.61,3.3,3.92,6.62,3.92h17.26c2.94-.08,4.8-.82,5.6-2.24.4-.72.6-1.43.6-2.13v-.09c-.13-2.65-1.66-4.18-4.57-4.57H8.49c-3.22,0-5.79-1.7-7.7-5.11-.53-1.27-.8-2.49-.8-3.66,0-3.65,1.93-6.39,5.8-8.21.72-.25,1.39-.38,2.02-.4Z" style="fill:#fff; stroke-width:0px;"></path><path d="m119.81,34.91c-2.44-2.5-4.91-3.75-7.39-3.75h-19.01c-2.48,0-4.94,1.25-7.39,3.75-1.61,1.74-2.41,4.53-2.41,8.35v18.52h4.18v-18.95c0-3.79,1.43-6.16,4.29-7.1l1.87-.28h17.93l1.87.28c2.86.95,4.29,3.31,4.29,7.1v18.95h4.17v-18.52c0-3.83-.8-6.61-2.41-8.35Z" style="fill:#fff; stroke-width:0px;"></path><path d="m57.5,58.5c-5.87-.42-10.53-5.32-10.53-11.3s4.66-10.88,10.53-11.3v-3.88c-8.03.42-14.41,7.05-14.41,15.18s6.38,14.76,14.41,15.18v-3.88Z" style="fill:#fff; stroke-width:0px;"></path><path d="m65.04,32.03v3.88c5.88.42,10.53,5.32,10.53,11.3s-4.66,10.88-10.53,11.3v3.88c8.03-.42,14.41-7.05,14.41-15.18s-6.38-14.75-14.41-15.18Z" style="fill:#fff; stroke-width:0px;"></path></svg> 